HIERARCHY
ROOT Hips
{
	OFFSET -3.958830 18.904000 13.208200
	CHANNELS 6 Xposition Yposition Zposition Zrotation Yrotation Xrotation 
	JOINT LHipJoint
	{
		OFFSET 0.000000 0.000000 0.000000
		CHANNELS 3 Zrotation Yrotation Xrotation
		JOINT LeftUpLeg
		{
			OFFSET 1.800000 -1.400000 0.085000
			CHANNELS 3 Zrotation Yrotation Xrotation
			JOINT LeftLeg
			{
				OFFSET 2.215000 -6.000000 0.000000
				CHANNELS 3 Zrotation Yrotation Xrotation
				JOINT LeftFoot
				{
					OFFSET 2.500000 -6.900000 0.000000
					CHANNELS 3 Zrotation Yrotation Xrotation
					JOINT LeftToeBase
					{
						OFFSET 0.200000 -0.500000 1.950000
						CHANNELS 3 Zrotation Yrotation Xrotation
						End Site
						{
							OFFSET 0.000000 0.000000 0.000000
						}
					}
				}
			}
		}
	}
	JOINT RHipJoint
	{
		OFFSET 0.000000 0.000000 0.000000
		CHANNELS 3 Zrotation Yrotation Xrotation
		JOINT RightUpLeg
		{
			OFFSET -1.800000 -1.400000 0.085000
			CHANNELS 3 Zrotation Yrotation Xrotation
			JOINT RightLeg
			{
				OFFSET -2.215000 -6.000000 0.000000
				CHANNELS 3 Zrotation Yrotation Xrotation
				JOINT RightFoot
				{
					OFFSET -2.500000 -6.900000 0.000000
					CHANNELS 3 Zrotation Yrotation Xrotation
					JOINT RightToeBase
					{
						OFFSET -0.200000 -0.500000 1.950000
						CHANNELS 3 Zrotation Yrotation Xrotation
						End Site
						{
							OFFSET 0.000000 0.000000 0.000000
						}
					}
				}
			}
		}
	}
	JOINT LowerBack
	{
		OFFSET 0.000000 0.000000 0.000000
		CHANNELS 3 Zrotation Yrotation Xrotation
		JOINT Spine
		{
			OFFSET -0.087000 1.940000 -0.288900
			CHANNELS 3 Zrotation Yrotation Xrotation
			JOINT Spine1
			{
				OFFSET 0.000000 1.950000 0.060000
				CHANNELS 3 Zrotation Yrotation Xrotation
				JOINT Neck
				{
					OFFSET 0.000000 0.000000 0.000000
					CHANNELS 3 Zrotation Yrotation Xrotation
					JOINT Neck1
					{
						OFFSET 0.000000 1.600000 0.340000
						CHANNELS 3 Zrotation Yrotation Xrotation
						JOINT Head
						{
							OFFSET 0.000000 1.667000 -0.240000
							CHANNELS 3 Zrotation Yrotation Xrotation
							End Site
							{
								OFFSET 0.000000 0.000000 0.000000
							}
						}
					}
				}
				JOINT LeftShoulder
				{
					OFFSET 0.000000 0.000000 0.000000
					CHANNELS 3 Zrotation Yrotation Xrotation
					JOINT LeftArm
					{
						OFFSET 2.700000 1.550000 -0.730000
						CHANNELS 3 Zrotation Yrotation Xrotation
						JOINT LeftForeArm
						{
							OFFSET 5.450000 0.000000 0.000000
							CHANNELS 3 Zrotation Yrotation Xrotation
							JOINT LeftHand
							{
								OFFSET 3.450000 0.000000 0.000000
								CHANNELS 3 Zrotation Yrotation Xrotation
								JOINT LeftHandIndex1
								{
									OFFSET 0.750000 0.000000 0.000000
									CHANNELS 3 Zrotation Yrotation Xrotation
									End Site
									{
										OFFSET 0.000000 0.000000 0.000000
									}
								}
							}
						}
					}
				}
				JOINT RightShoulder
				{
					OFFSET 0.000000 0.000000 0.000000
					CHANNELS 3 Zrotation Yrotation Xrotation
					JOINT RightArm
					{
						OFFSET -2.700000 1.550000 -0.730000
						CHANNELS 3 Zrotation Yrotation Xrotation
						JOINT RightForeArm
						{
							OFFSET -5.450000 0.000000 0.000000
							CHANNELS 3 Zrotation Yrotation Xrotation
							JOINT RightHand
							{
								OFFSET -3.450000 0.000000 0.000000
								CHANNELS 3 Zrotation Yrotation Xrotation
								JOINT RightHandIndex1
								{
									OFFSET -0.750000 0.000000 0.000000
									CHANNELS 3 Zrotation Yrotation Xrotation
									End Site
									{
										OFFSET 0.000000 0.000000 0.000000
									}
								}
							}
						}
					}
				}
			}
		}
	}
}
MOTION
Frames: 8
Frame Time: 0.016667
-2.355240 18.309050 0.690740 13.513381 -18.172141 3.564473 -15.647958 11.396912 6.983891 17.829338 -14.334988 -44.459038 -15.523122 34.912549 84.727459 3.082272 18.851407 -0.902222 -0.584130 -0.894140 -0.787180 18.197079 -8.960722 1.691738 -9.047238 1.587032 -32.475651 -5.493818 -5.232962 29.973211 -0.013359 -3.748970 3.242573 -0.664570 0.869470 0.277910 -2.962483 -3.790568 -9.289905 13.376618 -8.246438 32.977055 -6.304580 -1.757307 -19.144764 5.597009 -7.760825 -9.246635 -16.224532 8.389661 30.934251 -3.955680 6.143250 0.329710 -4.886268 19.567214 -1.778194 -63.442649 2.447149 -7.253636 -8.376729 -48.108453 2.441605 -3.798579 2.950467 0.655460 0.311820 -0.250560 0.227540 -5.169351 -11.962079 5.803759 71.815265 -8.217901 -16.514208 20.257711 52.967891 9.431378 1.849320 -1.428117 -0.420750 0.245040 0.580490 0.083020 
-2.339340 18.291960 0.621930 13.392936 -18.276983 2.558443 -15.707608 11.199172 7.275430 19.518470 -14.604699 -46.603596 -19.741791 36.836404 81.701703 3.098921 18.851157 -0.925779 -0.530410 -0.815120 -0.731810 18.176644 -8.868648 1.603307 -9.057788 1.565979 -32.003565 -5.308036 -5.367453 30.449409 -0.057081 -3.818172 3.186816 -0.628520 0.810700 0.310330 -2.868233 -3.810863 -9.411379 12.762509 -8.122946 35.950422 -6.130125 -1.095485 -18.884590 5.879504 -7.189541 -9.318758 -15.351267 7.503629 32.177829 -5.341320 6.248380 -1.838850 -7.033582 16.278875 -1.790562 -62.241292 -0.825918 -6.212382 -4.613668 -50.852065 0.934769 -3.782606 2.974728 0.646700 0.296350 -0.201890 0.216870 -3.590963 -8.823463 6.091413 71.613908 -6.319508 -16.304614 16.711104 55.704919 8.130176 1.850068 -1.453166 -0.374550 0.219800 0.555300 0.078060 
-2.310130 18.295150 0.435250 14.007240 -18.468131 -3.414009 -15.691444 11.157120 7.425839 20.019811 -15.381686 -45.505839 -26.494264 38.415908 75.811885 2.931861 18.339487 -0.959356 -0.270840 -0.471200 -0.484280 18.154277 -9.216551 1.232965 -9.865314 0.656278 -27.364089 -5.503875 -5.337738 30.911622 -0.241105 -3.951699 3.026401 -0.450160 0.549050 0.377080 -2.783799 -3.465571 -9.398936 10.590442 -7.317258 43.455154 -6.634675 -0.210269 -12.006142 6.601069 -5.098456 -9.946362 -11.990240 5.609604 36.302793 -8.704230 6.390820 -12.415840 -14.360614 3.184240 -0.780897 -53.923971 -7.820910 -8.341645 6.514383 -56.688976 -5.886915 -3.638882 2.934000 0.730370 0.168950 0.008170 0.179640 1.672292 2.886870 7.364077 70.116484 0.170337 -19.506866 1.062087 60.203795 -1.350812 1.805766 -1.347183 -0.255880 0.175550 0.446320 0.019190 
-2.299840 18.249950 0.292100 14.552888 -18.732470 -5.063617 -15.691227 10.663460 7.677991 21.516438 -15.609581 -48.681543 -33.681718 38.954216 68.426315 2.627190 17.653744 -0.898693 -0.087180 -0.211920 -0.274780 18.209666 -9.317986 1.202956 -10.066988 0.788987 -27.585421 -6.205656 -5.224542 32.370692 -0.352998 -4.197326 2.869146 -0.247990 0.448390 0.404380 -2.885953 -2.597557 -9.457296 10.086386 -5.773624 42.238558 -7.473996 0.616692 -0.434006 6.741840 -1.077745 -10.765948 -4.325424 3.181700 38.297204 -12.566240 7.557330 -16.958150 -21.351975 -12.211236 1.716731 -39.068620 -11.310219 -12.373246 18.478026 -60.473665 -14.057095 -3.615213 2.755256 0.742700 0.193610 0.105060 0.160120 7.584196 14.801870 9.063143 62.234806 5.087014 -22.667828 -17.136231 61.386066 -13.437017 1.597502 -1.093620 -0.245090 0.228680 0.373060 -0.049880 
-2.306670 18.207510 0.176230 15.127234 -18.730107 -5.875427 -15.709393 10.236398 7.950906 23.635474 -15.565956 -52.412788 -40.818301 39.003294 61.351966 2.366022 16.870557 -0.823429 0.091230 0.024490 -0.097230 18.266617 -9.266296 1.202810 -10.364404 1.032228 -28.485995 -6.423322 -5.322298 34.182773 -0.462313 -4.454337 2.694263 -0.090720 0.308230 0.432030 -2.992227 -2.122485 -9.517397 9.201189 -5.461708 42.484049 -7.747127 0.556479 6.181988 6.237846 0.739098 -11.760673 -0.934446 2.936994 38.689703 -13.846750 8.196820 -21.606000 -21.915227 -21.361252 3.876564 -29.151068 -12.683841 -14.455404 26.255029 -57.790636 -17.691866 -3.594385 2.723249 0.758710 0.161810 0.199300 0.123230 8.993298 22.321996 9.886439 54.847245 8.944109 -22.912239 -28.890718 58.509611 -19.767265 1.459607 -0.954793 -0.190270 0.212610 0.310210 -0.104900 
-2.319880 18.157710 0.087740 15.726921 -18.986903 -6.516914 -15.759301 9.954568 8.180416 25.453172 -15.112307 -55.679583 -46.322139 38.613494 55.833880 2.153408 16.325929 -0.701104 0.102060 0.046550 -0.054480 18.286003 -9.142388 1.221480 -10.457876 1.424564 -29.417647 -7.029083 -5.235592 35.844184 -0.528556 -4.666192 2.595721 -0.039850 0.334290 0.429460 -2.989947 -1.972140 -9.608174 8.008556 -4.844604 43.386018 -7.516205 0.898332 9.820032 5.678539 1.726348 -13.286104 0.813187 2.919121 39.168709 -13.820940 8.225340 -23.505930 -19.075552 -27.081183 5.586084 -24.086877 -13.260846 -15.511401 30.759507 -54.008166 -18.926863 -3.667451 2.598530 0.814220 0.181040 0.225560 0.103880 7.212947 27.512146 10.631477 50.129515 11.654644 -22.446365 -36.546680 53.375801 -22.237100 1.364576 -0.873937 -0.245190 0.311250 0.339860 -0.136370 
-2.330860 18.094290 0.046260 16.377935 -18.898952 -6.733005 -15.770099 9.697558 8.341675 26.313318 -15.178233 -58.590292 -48.585391 38.264541 53.624908 2.142307 16.066324 -0.626496 0.113990 0.065850 -0.031970 18.322679 -9.075373 1.274129 -11.098481 1.580948 -30.648762 -7.180612 -5.403438 37.571807 -0.581024 -4.923680 2.489665 -0.039440 0.305930 0.423760 -3.063606 -1.744184 -9.713222 7.480317 -4.742026 43.625686 -8.040818 0.950452 10.979833 5.313448 2.332429 -14.675380 1.819849 2.613387 40.234434 -13.338680 8.216840 -23.035870 -15.721771 -29.787259 6.912231 -22.120280 -12.332691 -15.910241 31.485490 -51.100544 -18.179790 -3.645016 2.648379 0.811580 0.162440 0.249020 0.100820 4.506046 29.877783 10.995988 49.440001 13.663110 -21.198620 -38.491231 48.396551 -21.476289 1.417327 -0.975289 -0.227730 0.301090 0.317420 -0.133670 
-2.346010 18.058440 0.035530 16.477334 -18.934660 -7.217931 -15.774196 9.553098 8.435550 27.129422 -14.832038 -59.876902 -49.921631 38.462937 52.658512 2.114069 15.973384 -0.618591 0.107810 0.041900 -0.010490 18.343129 -9.024897 1.317316 -11.667031 1.813226 -31.074603 -6.642365 -5.905140 39.446278 -0.647280 -5.221613 2.375311 -0.063830 0.259670 0.415630 -3.109858 -1.613460 -9.801788 7.595645 -4.865934 44.337302 -8.659792 1.140925 10.341143 5.423692 2.807937 -15.202384 2.628439 2.270077 41.891464 -13.966120 8.305170 -24.232400 -14.730180 -30.318764 7.407469 -22.149492 -11.419120 -15.748011 29.391802 -49.903277 -16.633216 -3.594811 2.663570 0.867030 0.122210 0.276660 0.076210 3.216817 30.226527 10.929892 50.278953 14.723260 -19.745210 -36.844647 44.806278 -19.113397 1.468922 -1.019872 -0.234840 0.294360 0.325940 -0.161500 
